<svg xmlns="http://www.w3.org/2000/svg" width="1800" height="620" viewBox="0 0 1800 620"><rect width="1800" height="620" fill="#07131f"/><style>.s{font-family:Segoe UI,Arial,sans-serif}.m{font-family:Consolas,monospace}.t{fill:#ecf7ff}.u{fill:#9fb3c5}</style><text x="70" y="72" class="s t" font-size="34" font-weight="700">Artillery decision and resolution funnel</text><text x="70" y="108" class="s u" font-size="18">What was considered, declared, fired, blocked, and established.</text><text x="70" y="205" class="m t" font-size="16">phases considered</text><rect x="520" y="180" width="1120" height="30" rx="6" fill="#102536"/><rect x="520" y="180" width="1120" height="30" rx="6" fill="#72b7ff"/><text x="1660" y="203" class="m u" font-size="15">15,122,096</text><text x="70" y="267" class="m t" font-size="16">shells declared</text><rect x="520" y="242" width="1120" height="30" rx="6" fill="#102536"/><rect x="520" y="242" width="202.53570140012337" height="30" rx="6" fill="#f8d66d"/><text x="1660" y="265" class="m u" font-size="15">2,734,611</text><text x="70" y="329" class="m t" font-size="16">shells fired</text><rect x="520" y="304" width="1120" height="30" rx="6" fill="#102536"/><rect x="520" y="304" width="202.53570140012337" height="30" rx="6" fill="#4ff0c5"/><text x="1660" y="327" class="m u" font-size="15">2,734,611</text><text x="70" y="391" class="m t" font-size="16">flare established</text><rect x="520" y="366" width="1120" height="30" rx="6" fill="#102536"/><rect x="520" y="366" width="121.51715476478923" height="30" rx="6" fill="#ff7188"/><text x="1660" y="389" class="m u" font-size="15">1,640,709</text><text x="70" y="453" class="m t" font-size="16">hostile shells blocked</text><rect x="520" y="428" width="1120" height="30" rx="6" fill="#102536"/><rect x="520" y="428" width="14.99725434886804" height="30" rx="6" fill="#4ff0c5"/><text x="1660" y="451" class="m u" font-size="15">202,491</text></svg>