<svg xmlns="http://www.w3.org/2000/svg" width="1800" height="468" viewBox="0 0 1800 468"><rect width="1800" height="468" fill="#07131f"/><style>.s{font-family:Segoe UI,Arial,sans-serif}.m{font-family:Consolas,monospace}.t{fill:#ecf7ff}.u{fill:#9fb3c5}</style><text x="70" y="72" class="s t" font-size="34" font-weight="700">Where artillery helps or hurts</text><text x="70" y="108" class="s u" font-size="18">Matched Stage C minus Stage B Player-1 score by scenario; teal helps, coral hurts.</text><text x="70" y="205" class="m t" font-size="16">escort-corridor</text><rect x="520" y="180" width="1120" height="30" rx="6" fill="#102536"/><line x1="1080" x2="1080" y1="176" y2="214" stroke="#ecf7ff" stroke-width="2"/><rect x="1080" y="180" width="132.08498379546285" height="30" rx="6" fill="#4ff0c5"/><text x="1660" y="203" class="m u" font-size="15">0.085 pp</text><text x="70" y="267" class="m t" font-size="16">shifting-front</text><rect x="520" y="242" width="1120" height="30" rx="6" fill="#102536"/><line x1="1080" x2="1080" y1="238" y2="276" stroke="#ecf7ff" stroke-width="2"/><rect x="851.8257111991395" y="242" width="228.1742888008605" height="30" rx="6" fill="#ff7188"/><text x="1660" y="265" class="m u" font-size="15">-0.147 pp</text><text x="70" y="329" class="m t" font-size="16">flare-pocket</text><rect x="520" y="304" width="1120" height="30" rx="6" fill="#102536"/><line x1="1080" x2="1080" y1="300" y2="338" stroke="#ecf7ff" stroke-width="2"/><rect x="591.2855599567898" y="304" width="488.7144400432102" height="30" rx="6" fill="#ff7188"/><text x="1660" y="327" class="m u" font-size="15">-0.316 pp</text><text x="70" y="391" class="m t" font-size="16">static-front</text><rect x="520" y="366" width="1120" height="30" rx="6" fill="#102536"/><line x1="1080" x2="1080" y1="362" y2="400" stroke="#ecf7ff" stroke-width="2"/><rect x="520" y="366" width="560" height="30" rx="6" fill="#ff7188"/><text x="1660" y="389" class="m u" font-size="15">-0.362 pp</text></svg>