<?xml version="1.0" encoding="UTF-8"?>
<svg xmlns="http://www.w3.org/2000/svg" width="390" height="844" viewBox="0 0 390 844" role="img" aria-labelledby="title desc">
<title id="title">01 / Choose your actions — 390×844</title>
<desc id="desc">Authored static design fixture. How will you spend two actions? 48% → 48%; 0 pp effective calibration. Conditional on this ordered plan resolving. K01 · K03 · K05 / P02 · P10 · P11. Not a playable match.</desc>
<g font-family="Segoe UI, Arial, sans-serif">
<rect x="0" y="0" width="390" height="844" rx="0" fill="#f4f1e9" stroke="none" /><rect x="0" y="0" width="390" height="60" rx="0" fill="#112d37" stroke="none" /><text x="16" y="25" font-size="17" fill="#ffffff" font-weight="700" >CONTEXT LANDSCAPE</text><text x="16" y="47" font-size="13" fill="#c2d9dc" font-weight="400" >01 / Choose your actions</text><text x="16" y="88" font-size="12" fill="#526771" font-weight="700" >ROUND 3 / 8</text><text x="374" y="88" font-size="12" fill="#117d78" font-weight="700" text-anchor="end">KINETIC</text><rect x="16" y="100" width="358" height="40" rx="12" fill="#ffffff" stroke="#c3cfcf" /><text x="28" y="126" font-size="14" fill="#19333e" font-weight="700" >Attention 3</text><text x="147" y="126" font-size="13" fill="#19333e" font-weight="400" >Progress 2/12</text><text x="282" y="126" font-size="13" fill="#b43e38" font-weight="700" >Drift 1/4</text><rect x="16" y="151" width="358" height="52" rx="12" fill="#ffffff" stroke="#c3cfcf" /><text x="28" y="175" font-size="17" fill="#19333e" font-weight="700" >LN1 / Line</text><text x="28" y="194" font-size="12" fill="#526771" font-weight="400" >Move + Range shift · 2 / 2 UAP</text><rect x="25" y="218" width="340" height="340" rx="2" fill="#faf8f0" stroke="#19333e" /><rect x="25" y="218" width="34" height="34" rx="0" fill="#f0efe2" stroke="none" /><rect x="25" y="286" width="34" height="34" rx="0" fill="#f0efe2" stroke="none" /><rect x="25" y="354" width="34" height="34" rx="0" fill="#f0efe2" stroke="none" /><rect x="25" y="422" width="34" height="34" rx="0" fill="#f0efe2" stroke="none" /><rect x="25" y="490" width="34" height="34" rx="0" fill="#f0efe2" stroke="none" /><rect x="59" y="252" width="34" height="34" rx="0" fill="#f0efe2" stroke="none" /><rect x="59" y="320" width="34" height="34" rx="0" fill="#f0efe2" stroke="none" /><rect x="59" y="388" width="34" height="34" rx="0" fill="#f0efe2" stroke="none" /><rect x="59" y="456" width="34" height="34" rx="0" fill="#f0efe2" stroke="none" /><rect x="59" y="524" width="34" height="34" rx="0" fill="#f0efe2" stroke="none" /><rect x="93" y="218" width="34" height="34" rx="0" fill="#f0efe2" stroke="none" /><rect x="93" y="286" width="34" height="34" rx="0" fill="#f0efe2" stroke="none" /><rect x="93" y="354" width="34" height="34" rx="0" fill="#f0efe2" stroke="none" /><rect x="93" y="422" width="34" height="34" rx="0" fill="#f0efe2" stroke="none" /><rect x="93" y="490" width="34" height="34" rx="0" fill="#f0efe2" stroke="none" /><rect x="127" y="252" width="34" height="34" rx="0" fill="#f0efe2" stroke="none" /><rect x="127" y="320" width="34" height="34" rx="0" fill="#f0efe2" stroke="none" /><rect x="127" y="388" width="34" height="34" rx="0" fill="#f0efe2" stroke="none" /><rect x="127" y="456" width="34" height="34" rx="0" fill="#f0efe2" stroke="none" /><rect x="127" y="524" width="34" height="34" rx="0" fill="#f0efe2" stroke="none" /><rect x="161" y="218" width="34" height="34" rx="0" fill="#f0efe2" stroke="none" /><rect x="161" y="286" width="34" height="34" rx="0" fill="#f0efe2" stroke="none" /><rect x="161" y="354" width="34" height="34" rx="0" fill="#f0efe2" stroke="none" /><rect x="161" y="422" width="34" height="34" rx="0" fill="#f0efe2" stroke="none" /><rect x="161" y="490" width="34" height="34" rx="0" fill="#f0efe2" stroke="none" /><rect x="195" y="252" width="34" height="34" rx="0" fill="#f0efe2" stroke="none" /><rect x="195" y="320" width="34" height="34" rx="0" fill="#f0efe2" stroke="none" /><rect x="195" y="388" width="34" height="34" rx="0" fill="#f0efe2" stroke="none" /><rect x="195" y="456" width="34" height="34" rx="0" fill="#f0efe2" stroke="none" /><rect x="195" y="524" width="34" height="34" rx="0" fill="#f0efe2" stroke="none" /><rect x="229" y="218" width="34" height="34" rx="0" fill="#f0efe2" stroke="none" /><rect x="229" y="286" width="34" height="34" rx="0" fill="#f0efe2" stroke="none" /><rect x="229" y="354" width="34" height="34" rx="0" fill="#f0efe2" stroke="none" /><rect x="229" y="422" width="34" height="34" rx="0" fill="#f0efe2" stroke="none" /><rect x="229" y="490" width="34" height="34" rx="0" fill="#f0efe2" stroke="none" /><rect x="263" y="252" width="34" height="34" rx="0" fill="#f0efe2" stroke="none" /><rect x="263" y="320" width="34" height="34" rx="0" fill="#f0efe2" stroke="none" /><rect x="263" y="388" width="34" height="34" rx="0" fill="#f0efe2" stroke="none" /><rect x="263" y="456" width="34" height="34" rx="0" fill="#f0efe2" stroke="none" /><rect x="263" y="524" width="34" height="34" rx="0" fill="#f0efe2" stroke="none" /><rect x="297" y="218" width="34" height="34" rx="0" fill="#f0efe2" stroke="none" /><rect x="297" y="286" width="34" height="34" rx="0" fill="#f0efe2" stroke="none" /><rect x="297" y="354" width="34" height="34" rx="0" fill="#f0efe2" stroke="none" /><rect x="297" y="422" width="34" height="34" rx="0" fill="#f0efe2" stroke="none" /><rect x="297" y="490" width="34" height="34" rx="0" fill="#f0efe2" stroke="none" /><rect x="331" y="252" width="34" height="34" rx="0" fill="#f0efe2" stroke="none" /><rect x="331" y="320" width="34" height="34" rx="0" fill="#f0efe2" stroke="none" /><rect x="331" y="388" width="34" height="34" rx="0" fill="#f0efe2" stroke="none" /><rect x="331" y="456" width="34" height="34" rx="0" fill="#f0efe2" stroke="none" /><rect x="331" y="524" width="34" height="34" rx="0" fill="#f0efe2" stroke="none" /><path d="M 25 218 h 272 v 272 h -272 Z M 127 320 h 34 v 34 h -34 Z" fill="#117d78" stroke="#117d78" fill-rule="evenodd" fill-opacity="0.08" stroke-width="2" stroke-dasharray="7 5"/><path d="M 25 218 h 204 v 238 h -204 Z M 93 320 h 34 v 34 h -34 Z" fill="#315d86" stroke="#315d86" fill-rule="evenodd" fill-opacity="0.025" stroke-width="2" /><rect x="127" y="320" width="102" height="102" rx="0" fill="#875d12" stroke="#875d12" fill-opacity="0.075" stroke-width="2" /><line x1="59" y1="218" x2="59" y2="558" stroke="#d4dace"  stroke-width="1"/><line x1="25" y1="252" x2="365" y2="252" stroke="#d4dace"  stroke-width="1"/><line x1="93" y1="218" x2="93" y2="558" stroke="#d4dace"  stroke-width="1"/><line x1="25" y1="286" x2="365" y2="286" stroke="#d4dace"  stroke-width="1"/><line x1="127" y1="218" x2="127" y2="558" stroke="#d4dace"  stroke-width="1"/><line x1="25" y1="320" x2="365" y2="320" stroke="#d4dace"  stroke-width="1"/><line x1="161" y1="218" x2="161" y2="558" stroke="#d4dace"  stroke-width="1"/><line x1="25" y1="354" x2="365" y2="354" stroke="#d4dace"  stroke-width="1"/><line x1="195" y1="218" x2="195" y2="558" stroke="#d4dace"  stroke-width="1"/><line x1="25" y1="388" x2="365" y2="388" stroke="#d4dace"  stroke-width="1"/><line x1="229" y1="218" x2="229" y2="558" stroke="#d4dace"  stroke-width="1"/><line x1="25" y1="422" x2="365" y2="422" stroke="#d4dace"  stroke-width="1"/><line x1="263" y1="218" x2="263" y2="558" stroke="#d4dace"  stroke-width="1"/><line x1="25" y1="456" x2="365" y2="456" stroke="#d4dace"  stroke-width="1"/><line x1="297" y1="218" x2="297" y2="558" stroke="#d4dace"  stroke-width="1"/><line x1="25" y1="490" x2="365" y2="490" stroke="#d4dace"  stroke-width="1"/><line x1="331" y1="218" x2="331" y2="558" stroke="#d4dace"  stroke-width="1"/><line x1="25" y1="524" x2="365" y2="524" stroke="#d4dace"  stroke-width="1"/><text x="133" y="415" font-size="9" fill="#875d12" font-weight="600" >Your front · R3</text><line x1="110" y1="337" x2="144" y2="337" stroke="#117d78"  stroke-width="3" stroke-dasharray="5 4"/><polygon points="88.58,303 82.29,313.8945995796082 69.71000000000001,313.8945995796082 63.42,303 69.71,292.1054004203918 82.29,292.1054004203918" fill="#ffffff" stroke="#19333e" stroke-width="2.5"/><text x="76" y="307" font-size="10" fill="#19333e" font-weight="700" text-anchor="middle">SC1</text><circle cx="110" cy="337" r="17.58" fill="none" stroke="#117d78" stroke-width="3"/><polygon points="122.58,337 116.29,347.8945995796082 103.71000000000001,347.8945995796082 97.42,337 103.71,326.1054004203918 116.29,326.1054004203918" fill="#ffffff" stroke="#19333e" stroke-width="2.5"/><text x="110" y="341" font-size="10" fill="#19333e" font-weight="700" text-anchor="middle">LN1</text><polygon points="190.58,303 184.29,313.8945995796082 171.71,313.8945995796082 165.42,303 171.71,292.1054004203918 184.29,292.1054004203918" fill="#ffffff" stroke="#19333e" stroke-width="2.5"/><text x="178" y="307" font-size="10" fill="#19333e" font-weight="700" text-anchor="middle">HV1</text><rect x="133.8" y="326.8" width="20.4" height="20.4" rx="6" fill="none" stroke="#117d78" stroke-width="2" stroke-dasharray="5 4"/><text x="144" y="341" font-size="12" fill="#117d78" font-weight="700" text-anchor="middle">1</text><polygon points="326.58,473 320.29,483.8945995796082 307.71,483.8945995796082 301.42,473 307.71,462.1054004203918 320.29,462.1054004203918" fill="#f8e4df" stroke="#b43e38" stroke-width="2.5"/><text x="314" y="477" font-size="10" fill="#b43e38" font-weight="700" text-anchor="middle">LN2</text><polygon points="326.58,507 320.29,517.8945995796082 307.71,517.8945995796082 301.42,507 307.71,496.1054004203918 320.29,496.1054004203918" fill="#f8e4df" stroke="#b43e38" stroke-width="2.5"/><text x="314" y="511" font-size="10" fill="#b43e38" font-weight="700" text-anchor="middle">SC2</text><polygon points="292.58,507 286.29,517.8945995796082 273.71,517.8945995796082 267.42,507 273.71,496.1054004203918 286.29,496.1054004203918" fill="#f8e4df" stroke="#b43e38" stroke-width="2.5"/><text x="280" y="511" font-size="10" fill="#b43e38" font-weight="700" text-anchor="middle">HV2</text><text x="25" y="580" font-size="11" fill="#526771" font-weight="400" >⬡ Mech   ◇ Artifact   ▣ Battery   ! Hazard</text><rect x="16" y="596" width="358" height="146" rx="12" fill="#112d37" stroke="none" /><text x="30" y="621" font-size="15" fill="#c2d9dc" font-weight="700" >Stage plan</text><text x="30" y="656" font-size="28" fill="#ffffff" font-weight="700" >48% → 48%</text><text x="30" y="681" font-size="14" fill="#bee5dd" font-weight="600" >0 pp effective calibration</text><text x="30" y="706" font-size="12" fill="#c2d9dc" font-weight="400" >At 80% density · range 3 → 4</text><text x="30" y="730" font-size="12" fill="#c2d9dc" font-weight="700" >Move 1 + Range 1 = 2 UAP</text><rect x="16" y="752" width="358" height="32" rx="7" fill="#f5e7b8" stroke="none" /><text x="28" y="773" font-size="12" fill="#875d12" font-weight="700" >What this represents  /  Details + conditions</text><rect x="16" y="795" width="358" height="36" rx="8" fill="#117d78" stroke="none" /><text x="195" y="819" font-size="14" fill="#ffffff" font-weight="700" text-anchor="middle">Stage Move + Range shift</text>
</g></svg>
