<?xml version="1.0" encoding="UTF-8"?>
<svg xmlns="http://www.w3.org/2000/svg" width="2048" height="900" viewBox="0 0 2048 900" role="img" aria-labelledby="title desc">
<title id="title">02 / Triage and support — 2048×900</title>
<desc id="desc">Authored static design fixture. Save this work. Keep the support? Verify 1 → 0; B1 supplies −1 attention. Verify stops the hazard; it does not accept A1. D03 · D04 · T06 · T07 / P03 · P04 · P08. Not a playable match.</desc>
<g font-family="Segoe UI, Arial, sans-serif">
<rect x="0" y="0" width="2048" height="900" rx="0" fill="#f4f1e9" stroke="none" /><rect x="0" y="0" width="2048" height="68" rx="0" fill="#112d37" stroke="none" /><text x="24" y="30" font-size="20" fill="#ffffff" font-weight="700" >CONTEXT LANDSCAPE</text><text x="24" y="53" font-size="14" fill="#b7d6d4" font-weight="400" >A board of work, support and decisions</text><text x="2024" y="30" font-size="22" fill="#ffffff" font-weight="600" text-anchor="end">02 / Triage and support</text><text x="2024" y="53" font-size="12" fill="#b7d6d4" font-weight="600" text-anchor="end">AUTHORED WIREFRAME / 2048 × 900</text><rect x="24" y="84" width="323.3333333333333" height="58" rx="12" fill="#ffffff" stroke="#c3cfcf" /><text x="38" y="105" font-size="12" fill="#526771" font-weight="700" >ROUND</text><text x="38" y="130" font-size="21" fill="#19333e" font-weight="700" >4 / 8</text><rect x="359.3333333333333" y="84" width="323.3333333333333" height="58" rx="12" fill="#ffffff" stroke="#c3cfcf" /><text x="373.3333333333333" y="105" font-size="12" fill="#526771" font-weight="700" >PHASE</text><text x="373.3333333333333" y="130" font-size="21" fill="#19333e" font-weight="700" >COMMAND</text><rect x="694.6666666666666" y="84" width="323.3333333333333" height="58" rx="12" fill="#ffffff" stroke="#c3cfcf" /><text x="708.6666666666666" y="105" font-size="12" fill="#526771" font-weight="700" >ATTENTION</text><text x="708.6666666666666" y="130" font-size="21" fill="#19333e" font-weight="700" >3</text><rect x="1030" y="84" width="323.3333333333333" height="58" rx="12" fill="#ffffff" stroke="#c3cfcf" /><text x="1044" y="105" font-size="12" fill="#526771" font-weight="700" >PROGRESS</text><text x="1044" y="130" font-size="21" fill="#19333e" font-weight="700" >2 / 12</text><rect x="1365.3333333333333" y="84" width="323.3333333333333" height="58" rx="12" fill="#ffffff" stroke="#c3cfcf" /><text x="1379.3333333333333" y="105" font-size="12" fill="#526771" font-weight="700" >DRIFT</text><text x="1379.3333333333333" y="130" font-size="21" fill="#b43e38" font-weight="700" >1 / 4</text><rect x="1700.6666666666665" y="84" width="323.3333333333333" height="58" rx="12" fill="#ffffff" stroke="#c3cfcf" /><text x="1714.6666666666665" y="105" font-size="12" fill="#526771" font-weight="700" >BATTERIES</text><text x="1714.6666666666665" y="130" font-size="21" fill="#19333e" font-weight="700" >1</text><rect x="24" y="164" width="250" height="630" rx="12" fill="#ffffff" stroke="#c3cfcf" /><text x="40" y="194" font-size="13" fill="#526771" font-weight="700" >YOUR FORCE</text><rect x="36" y="210" width="226" height="60" rx="7" fill="#f4f1e9" stroke="none" /><text x="48" y="235" font-size="16" fill="#19333e" font-weight="700" >SC1 / Scout</text><text x="48" y="256" font-size="12" fill="#526771" font-weight="400" >Output decided</text><rect x="36" y="282" width="226" height="60" rx="7" fill="#f4f1e9" stroke="none" /><text x="48" y="307" font-size="16" fill="#19333e" font-weight="700" >LN1 / Line</text><text x="48" y="328" font-size="12" fill="#526771" font-weight="400" >Output decided</text><rect x="36" y="354" width="226" height="60" rx="7" fill="#f4f1e9" stroke="none" /><text x="48" y="379" font-size="16" fill="#19333e" font-weight="700" >HV1 / Heavy</text><text x="48" y="400" font-size="12" fill="#526771" font-weight="400" >Output decided</text><text x="40" y="459" font-size="13" fill="#526771" font-weight="700" >OPEN WORK</text><rect x="36" y="477" width="226" height="96" rx="7" fill="#dcf0e7" stroke="none" /><text x="48" y="502" font-size="18" fill="#19333e" font-weight="700" >◇ A1</text><text x="48" y="526" font-size="14" fill="#526771" font-weight="400" >Signal 62%</text><text x="48" y="552" font-size="14" fill="#b43e38" font-weight="600" >Age 3 / limit 2</text><rect x="36" y="585" width="226" height="96" rx="7" fill="#dcf0e7" stroke="none" /><text x="48" y="610" font-size="16" fill="#117d78" font-weight="700" >▣ B1 / Battery</text><text x="48" y="634" font-size="14" fill="#526771" font-weight="400" >Verified · sound</text><text x="48" y="660" font-size="14" fill="#117d78" font-weight="600" >Active support</text><text x="40" y="752" font-size="12" fill="#526771" font-weight="700" >ALL PIECES</text><text x="40" y="773" font-size="12" fill="#526771" font-weight="400" >Shared map + ledger selection</text><text x="302" y="160" font-size="13" fill="#526771" font-weight="700" >TACTICAL FIELD / 10 × 10</text><rect x="302" y="174" width="620" height="620" rx="2" fill="#faf8f0" stroke="#19333e" /><rect x="302" y="174" width="62" height="62" rx="0" fill="#f0efe2" stroke="none" /><rect x="302" y="298" width="62" height="62" rx="0" fill="#f0efe2" stroke="none" /><rect x="302" y="422" width="62" height="62" rx="0" fill="#f0efe2" stroke="none" /><rect x="302" y="546" width="62" height="62" rx="0" fill="#f0efe2" stroke="none" /><rect x="302" y="670" width="62" height="62" rx="0" fill="#f0efe2" stroke="none" /><rect x="364" y="236" width="62" height="62" rx="0" fill="#f0efe2" stroke="none" /><rect x="364" y="360" width="62" height="62" rx="0" fill="#f0efe2" stroke="none" /><rect x="364" y="484" width="62" height="62" rx="0" fill="#f0efe2" stroke="none" /><rect x="364" y="608" width="62" height="62" rx="0" fill="#f0efe2" stroke="none" /><rect x="364" y="732" width="62" height="62" rx="0" fill="#f0efe2" stroke="none" /><rect x="426" y="174" width="62" height="62" rx="0" fill="#f0efe2" stroke="none" /><rect x="426" y="298" width="62" height="62" rx="0" fill="#f0efe2" stroke="none" /><rect x="426" y="422" width="62" height="62" rx="0" fill="#f0efe2" stroke="none" /><rect x="426" y="546" width="62" height="62" rx="0" fill="#f0efe2" stroke="none" /><rect x="426" y="670" width="62" height="62" rx="0" fill="#f0efe2" stroke="none" /><rect x="488" y="236" width="62" height="62" rx="0" fill="#f0efe2" stroke="none" /><rect x="488" y="360" width="62" height="62" rx="0" fill="#f0efe2" stroke="none" /><rect x="488" y="484" width="62" height="62" rx="0" fill="#f0efe2" stroke="none" /><rect x="488" y="608" width="62" height="62" rx="0" fill="#f0efe2" stroke="none" /><rect x="488" y="732" width="62" height="62" rx="0" fill="#f0efe2" stroke="none" /><rect x="550" y="174" width="62" height="62" rx="0" fill="#f0efe2" stroke="none" /><rect x="550" y="298" width="62" height="62" rx="0" fill="#f0efe2" stroke="none" /><rect x="550" y="422" width="62" height="62" rx="0" fill="#f0efe2" stroke="none" /><rect x="550" y="546" width="62" height="62" rx="0" fill="#f0efe2" stroke="none" /><rect x="550" y="670" width="62" height="62" rx="0" fill="#f0efe2" stroke="none" /><rect x="612" y="236" width="62" height="62" rx="0" fill="#f0efe2" stroke="none" /><rect x="612" y="360" width="62" height="62" rx="0" fill="#f0efe2" stroke="none" /><rect x="612" y="484" width="62" height="62" rx="0" fill="#f0efe2" stroke="none" /><rect x="612" y="608" width="62" height="62" rx="0" fill="#f0efe2" stroke="none" /><rect x="612" y="732" width="62" height="62" rx="0" fill="#f0efe2" stroke="none" /><rect x="674" y="174" width="62" height="62" rx="0" fill="#f0efe2" stroke="none" /><rect x="674" y="298" width="62" height="62" rx="0" fill="#f0efe2" stroke="none" /><rect x="674" y="422" width="62" height="62" rx="0" fill="#f0efe2" stroke="none" /><rect x="674" y="546" width="62" height="62" rx="0" fill="#f0efe2" stroke="none" /><rect x="674" y="670" width="62" height="62" rx="0" fill="#f0efe2" stroke="none" /><rect x="736" y="236" width="62" height="62" rx="0" fill="#f0efe2" stroke="none" /><rect x="736" y="360" width="62" height="62" rx="0" fill="#f0efe2" stroke="none" /><rect x="736" y="484" width="62" height="62" rx="0" fill="#f0efe2" stroke="none" /><rect x="736" y="608" width="62" height="62" rx="0" fill="#f0efe2" stroke="none" /><rect x="736" y="732" width="62" height="62" rx="0" fill="#f0efe2" stroke="none" /><rect x="798" y="174" width="62" height="62" rx="0" fill="#f0efe2" stroke="none" /><rect x="798" y="298" width="62" height="62" rx="0" fill="#f0efe2" stroke="none" /><rect x="798" y="422" width="62" height="62" rx="0" fill="#f0efe2" stroke="none" /><rect x="798" y="546" width="62" height="62" rx="0" fill="#f0efe2" stroke="none" /><rect x="798" y="670" width="62" height="62" rx="0" fill="#f0efe2" stroke="none" /><rect x="860" y="236" width="62" height="62" rx="0" fill="#f0efe2" stroke="none" /><rect x="860" y="360" width="62" height="62" rx="0" fill="#f0efe2" stroke="none" /><rect x="860" y="484" width="62" height="62" rx="0" fill="#f0efe2" stroke="none" /><rect x="860" y="608" width="62" height="62" rx="0" fill="#f0efe2" stroke="none" /><rect x="860" y="732" width="62" height="62" rx="0" fill="#f0efe2" stroke="none" /><rect x="488" y="298" width="186" height="186" rx="0" fill="#117d78" stroke="#117d78" fill-opacity="0.2" stroke-width="2" /><rect x="426" y="298" width="186" height="186" rx="0" fill="#b43e38" stroke="#b43e38" fill-opacity="0.08" stroke-width="2" stroke-dasharray="2 5"/><rect x="550" y="422" width="186" height="186" rx="0" fill="#875d12" stroke="#875d12" fill-opacity="0.075" stroke-width="2" /><line x1="364" y1="174" x2="364" y2="794" stroke="#d4dace"  stroke-width="1"/><line x1="302" y1="236" x2="922" y2="236" stroke="#d4dace"  stroke-width="1"/><line x1="426" y1="174" x2="426" y2="794" stroke="#d4dace"  stroke-width="1"/><line x1="302" y1="298" x2="922" y2="298" stroke="#d4dace"  stroke-width="1"/><line x1="488" y1="174" x2="488" y2="794" stroke="#d4dace"  stroke-width="1"/><line x1="302" y1="360" x2="922" y2="360" stroke="#d4dace"  stroke-width="1"/><line x1="550" y1="174" x2="550" y2="794" stroke="#d4dace"  stroke-width="1"/><line x1="302" y1="422" x2="922" y2="422" stroke="#d4dace"  stroke-width="1"/><line x1="612" y1="174" x2="612" y2="794" stroke="#d4dace"  stroke-width="1"/><line x1="302" y1="484" x2="922" y2="484" stroke="#d4dace"  stroke-width="1"/><line x1="674" y1="174" x2="674" y2="794" stroke="#d4dace"  stroke-width="1"/><line x1="302" y1="546" x2="922" y2="546" stroke="#d4dace"  stroke-width="1"/><line x1="736" y1="174" x2="736" y2="794" stroke="#d4dace"  stroke-width="1"/><line x1="302" y1="608" x2="922" y2="608" stroke="#d4dace"  stroke-width="1"/><line x1="798" y1="174" x2="798" y2="794" stroke="#d4dace"  stroke-width="1"/><line x1="302" y1="670" x2="922" y2="670" stroke="#d4dace"  stroke-width="1"/><line x1="860" y1="174" x2="860" y2="794" stroke="#d4dace"  stroke-width="1"/><line x1="302" y1="732" x2="922" y2="732" stroke="#d4dace"  stroke-width="1"/><text x="556" y="601" font-size="12" fill="#875d12" font-weight="600" >Your front · R4</text><text x="307" y="189" font-size="11" fill="#526771" font-weight="400" >0</text><text x="369" y="189" font-size="11" fill="#526771" font-weight="400" >1</text><text x="307" y="251" font-size="11" fill="#526771" font-weight="400" >1</text><text x="431" y="189" font-size="11" fill="#526771" font-weight="400" >2</text><text x="307" y="313" font-size="11" fill="#526771" font-weight="400" >2</text><text x="493" y="189" font-size="11" fill="#526771" font-weight="400" >3</text><text x="307" y="375" font-size="11" fill="#526771" font-weight="400" >3</text><text x="555" y="189" font-size="11" fill="#526771" font-weight="400" >4</text><text x="307" y="437" font-size="11" fill="#526771" font-weight="400" >4</text><text x="617" y="189" font-size="11" fill="#526771" font-weight="400" >5</text><text x="307" y="499" font-size="11" fill="#526771" font-weight="400" >5</text><text x="679" y="189" font-size="11" fill="#526771" font-weight="400" >6</text><text x="307" y="561" font-size="11" fill="#526771" font-weight="400" >6</text><text x="741" y="189" font-size="11" fill="#526771" font-weight="400" >7</text><text x="307" y="623" font-size="11" fill="#526771" font-weight="400" >7</text><text x="803" y="189" font-size="11" fill="#526771" font-weight="400" >8</text><text x="307" y="685" font-size="11" fill="#526771" font-weight="400" >8</text><text x="865" y="189" font-size="11" fill="#526771" font-weight="400" >9</text><text x="307" y="747" font-size="11" fill="#526771" font-weight="400" >9</text><line x1="581" y1="391" x2="519" y2="391" stroke="#117d78"  stroke-width="3" /><line x1="581" y1="391" x2="519" y2="329" stroke="#117d78"  stroke-width="3" stroke-dasharray="5 4"/><line x1="581" y1="391" x2="643" y2="391" stroke="#117d78"  stroke-width="3" stroke-dasharray="5 4"/><polygon points="478.08,391 467.54,409.25581551177595 446.46,409.25581551177595 435.92,391 446.46,372.74418448822405 467.54,372.74418448822405" fill="#ffffff" stroke="#19333e" stroke-width="2.5"/><text x="457" y="396" font-size="16" fill="#19333e" font-weight="700" text-anchor="middle">SC1</text><polygon points="540.08,329 529.54,347.25581551177595 508.46,347.25581551177595 497.92,329 508.46,310.74418448822405 529.54,310.74418448822405" fill="#ffffff" stroke="#19333e" stroke-width="2.5"/><text x="519" y="334" font-size="16" fill="#19333e" font-weight="700" text-anchor="middle">LN1</text><polygon points="664.08,391 653.54,409.25581551177595 632.46,409.25581551177595 621.92,391 632.46,372.74418448822405 653.54,372.74418448822405" fill="#ffffff" stroke="#19333e" stroke-width="2.5"/><text x="643" y="396" font-size="16" fill="#19333e" font-weight="700" text-anchor="middle">HV1</text><circle cx="519" cy="391" r="26.080000000000002" fill="none" stroke="#117d78" stroke-width="3"/><polygon points="519,369.92 540.08,391 519,412.08 497.92,391" fill="#ffffff" stroke="#19333e" stroke-width="2.5"/><text x="519" y="396" font-size="16" fill="#19333e" font-weight="700" text-anchor="middle">A1</text><path d="M 540.08 357.92 l 11 20 h -22 Z" fill="#b43e38"/><text x="540.08" y="372.92" font-size="12" fill="#ffffff" font-weight="700" text-anchor="middle">!</text><rect x="559.92" y="369.92" width="42.160000000000004" height="42.160000000000004" rx="4" fill="#dcf0e7" stroke="#117d78" stroke-width="2.5"/><text x="581" y="396" font-size="16" fill="#117d78" font-weight="700" text-anchor="middle">B1</text><text x="601.08" y="372.92" font-size="16" fill="#117d78" font-weight="700" >✓</text><polygon points="850.08,639 839.54,657.255815511776 818.46,657.255815511776 807.92,639 818.46,620.744184488224 839.54,620.744184488224" fill="#f8e4df" stroke="#b43e38" stroke-width="2.5"/><text x="829" y="644" font-size="16" fill="#b43e38" font-weight="700" text-anchor="middle">LN2</text><polygon points="850.08,701 839.54,719.255815511776 818.46,719.255815511776 807.92,701 818.46,682.744184488224 839.54,682.744184488224" fill="#f8e4df" stroke="#b43e38" stroke-width="2.5"/><text x="829" y="706" font-size="16" fill="#b43e38" font-weight="700" text-anchor="middle">SC2</text><polygon points="788.08,701 777.54,719.255815511776 756.46,719.255815511776 745.92,701 756.46,682.744184488224 777.54,682.744184488224" fill="#f8e4df" stroke="#b43e38" stroke-width="2.5"/><text x="767" y="706" font-size="16" fill="#b43e38" font-weight="700" text-anchor="middle">HV2</text><circle cx="900" cy="198" r="12" fill="#117d78"/><text x="900" y="202" font-size="12" fill="#ffffff" font-weight="700" text-anchor="middle">1</text><text x="316" y="777" font-size="14" fill="#19333e" font-weight="600" >Solid: discount now · dashed: UAP next Register</text><text x="302" y="815" font-size="13" fill="#526771" font-weight="600" >⬡ Mech    ◇ Artifact    ▣ Battery    ! Hazard</text><rect x="950" y="164" width="512" height="192" rx="12" fill="#112d37" stroke="none" /><circle cx="976" cy="194" r="12" fill="#117d78"/><text x="976" y="198" font-size="12" fill="#ffffff" font-weight="700" text-anchor="middle">2</text><text x="998" y="199" font-size="20" fill="#ffffff" font-weight="700" >A1 / Pending artifact</text><text x="970" y="250" font-size="36" fill="#ffffff" font-weight="700" >Verify 1 → 0</text><text x="970" y="283" font-size="18" fill="#bee5dd" font-weight="600" >B1 supplies −1 attention</text><text x="970" y="315" font-size="14" fill="#d3e4e8" font-weight="400" >Local reach · reveal truth · stabilize</text><text x="970" y="340" font-size="14" fill="#d3e4e8" font-weight="700" >0 attention</text><rect x="950" y="372" width="512" height="422" rx="12" fill="#ffffff" stroke="#c3cfcf" /><text x="970" y="403" font-size="13" fill="#526771" font-weight="700" >WHAT CHANGES</text><text x="970" y="437" font-size="16" fill="#526771" font-weight="400" >Signal 62% · truth unknown</text><text x="970" y="465" font-size="16" fill="#526771" font-weight="400" >Age 3 / limit 2 · overdue</text><text x="970" y="493" font-size="16" fill="#526771" font-weight="400" >If still pending: +2 Drift</text><text x="970" y="521" font-size="16" fill="#526771" font-weight="400" >SC1 and LN1 freeze next Register.</text><text x="970" y="620" font-size="15" fill="#b43e38" font-weight="600" >Verify stops the hazard; it does not accept A1.</text><rect x="1488" y="164" width="536" height="310" rx="12" fill="#ffffff" stroke="#c3cfcf" /><circle cx="1514" cy="194" r="12" fill="#875d12"/><text x="1514" y="198" font-size="12" fill="#ffffff" font-weight="700" text-anchor="middle">3</text><text x="1536" y="199" font-size="14" fill="#19333e" font-weight="700" >FOLLOW THE RELATIONSHIPS</text><text x="1508" y="240" font-size="18" fill="#526771" font-weight="400" >B1: verified, sound, objective-eligible</text><text x="1508" y="273" font-size="18" fill="#526771" font-weight="400" >80% density · 85% source calibration</text><text x="1508" y="306" font-size="18" fill="#526771" font-weight="400" >Keep: discounts now; LN1/HV1 +1 UAP</text><text x="1508" y="339" font-size="18" fill="#526771" font-weight="400" >at next Register if still supported.</text><text x="1508" y="372" font-size="18" fill="#526771" font-weight="400" >Accept B1: +1 Progress at Resolution;</text><text x="1508" y="405" font-size="18" fill="#526771" font-weight="400" >its support ends immediately.</text><rect x="1488" y="490" width="536" height="304" rx="12" fill="#f5e7b8" stroke="none" /><text x="1508" y="523" font-size="13" fill="#875d12" font-weight="700" >WHAT THIS REPRESENTS</text><text x="1508" y="561" font-size="20" fill="#19333e" font-weight="400" >Validated work can support nearby work.</text><text x="1508" y="590" font-size="20" fill="#19333e" font-weight="400" >Closing B1 removes that help.</text><text x="1508" y="737" font-size="12" fill="#875d12" font-weight="700" >FAMILIAR SKILL</text><text x="1508" y="763" font-size="17" fill="#19333e" font-weight="600" >Keeping an economy versus taking points</text><rect x="24" y="824" width="2000" height="52" rx="10" fill="#112d37" stroke="none" /><text x="42" y="846" font-size="17" fill="#ffffff" font-weight="700" >Save this work. Keep the support?</text><text x="42" y="866" font-size="13" fill="#c2d9dc" font-weight="400" >A1 is due this Resolution. B1 helps you deal with it now.</text><rect x="1732" y="831" width="276" height="38" rx="7" fill="#117d78" stroke="none" /><text x="1870" y="856" font-size="15" fill="#ffffff" font-weight="700" text-anchor="middle">Verify A1</text>
</g></svg>
