<?xml version="1.0" encoding="UTF-8"?>
<svg xmlns="http://www.w3.org/2000/svg" width="1200" height="760" viewBox="0 0 1200 760" role="img" aria-labelledby="title description">
  <title id="title">What each asset family is good at</title><desc id="description">Perception means across all directions and quality lanes · family sample sizes vary from 12 to 36</desc>
  <rect width="1200" height="760" fill="#07131b"/>
  <text x="62" y="72" fill="#eef8f5" font-family="Inter,Segoe UI,sans-serif" font-size="38" font-weight="750">What each asset family is good at</text>
  <text x="62" y="108" fill="#8fb4c4" font-family="Inter,Segoe UI,sans-serif" font-size="17">Perception means across all directions and quality lanes · family sample sizes vary from 12 to 36</text>
  <rect x="62" y="148" width="1076" height="530" rx="18" fill="#0d202a" stroke="#24414d"/><rect x="750" y="173" width="14" height="14" rx="3" fill="#76dbc1"/><text x="770" y="186" fill="#8fb4c4" text-anchor="start" font-family="Inter,Segoe UI,sans-serif" font-size="13" font-weight="500">Aesthetic</text><rect x="862" y="173" width="14" height="14" rx="3" fill="#ffd166"/><text x="882" y="186" fill="#8fb4c4" text-anchor="start" font-family="Inter,Segoe UI,sans-serif" font-size="13" font-weight="500">Originality</text><rect x="974" y="173" width="14" height="14" rx="3" fill="#ff796c"/><text x="994" y="186" fill="#8fb4c4" text-anchor="start" font-family="Inter,Segoe UI,sans-serif" font-size="13" font-weight="500">Merch appeal</text><text x="92" y="243" fill="#eef8f5" text-anchor="start" font-family="Inter,Segoe UI,sans-serif" font-size="17" font-weight="650">Ability</text><rect x="315" y="226" width="205" height="22" rx="11" fill="#24414d"/><rect x="315" y="226" width="174.11618055555556" height="22" rx="11" fill="#76dbc1"/><text x="530" y="244" fill="#76dbc1" text-anchor="start" font-family="Inter,Segoe UI,sans-serif" font-size="14" font-weight="500">6.12</text><rect x="590" y="226" width="205" height="22" rx="11" fill="#24414d"/><rect x="590" y="226" width="152.04173500000002" height="22" rx="11" fill="#ffd166"/><text x="805" y="244" fill="#ffd166" text-anchor="start" font-family="Inter,Segoe UI,sans-serif" font-size="14" font-weight="500">74.2</text><rect x="865" y="226" width="205" height="22" rx="11" fill="#24414d"/><rect x="865" y="226" width="122.57298499999999" height="22" rx="11" fill="#ff796c"/><text x="1080" y="244" fill="#ff796c" text-anchor="start" font-family="Inter,Segoe UI,sans-serif" font-size="14" font-weight="500">59.8</text><text x="92" y="331" fill="#eef8f5" text-anchor="start" font-family="Inter,Segoe UI,sans-serif" font-size="17" font-weight="650">Artillery</text><rect x="315" y="314" width="205" height="22" rx="11" fill="#24414d"/><rect x="315" y="314" width="170.5884722222222" height="22" rx="11" fill="#76dbc1"/><text x="530" y="332" fill="#76dbc1" text-anchor="start" font-family="Inter,Segoe UI,sans-serif" font-size="14" font-weight="500">5.99</text><rect x="590" y="314" width="205" height="22" rx="11" fill="#24414d"/><rect x="590" y="314" width="105.91673499999999" height="22" rx="11" fill="#ffd166"/><text x="805" y="332" fill="#ffd166" text-anchor="start" font-family="Inter,Segoe UI,sans-serif" font-size="14" font-weight="500">51.7</text><rect x="865" y="314" width="205" height="22" rx="11" fill="#24414d"/><rect x="865" y="314" width="73.458265" height="22" rx="11" fill="#ff796c"/><text x="1080" y="332" fill="#ff796c" text-anchor="start" font-family="Inter,Segoe UI,sans-serif" font-size="14" font-weight="500">35.8</text><text x="92" y="419" fill="#eef8f5" text-anchor="start" font-family="Inter,Segoe UI,sans-serif" font-size="17" font-weight="650">Battlefield</text><rect x="315" y="402" width="205" height="22" rx="11" fill="#24414d"/><rect x="315" y="402" width="186.03180555555556" height="22" rx="11" fill="#76dbc1"/><text x="530" y="420" fill="#76dbc1" text-anchor="start" font-family="Inter,Segoe UI,sans-serif" font-size="14" font-weight="500">6.53</text><rect x="590" y="402" width="205" height="22" rx="11" fill="#24414d"/><rect x="590" y="402" width="133.25" height="22" rx="11" fill="#ffd166"/><text x="805" y="420" fill="#ffd166" text-anchor="start" font-family="Inter,Segoe UI,sans-serif" font-size="14" font-weight="500">65.0</text><rect x="865" y="402" width="205" height="22" rx="11" fill="#24414d"/><rect x="865" y="402" width="93.10423499999999" height="22" rx="11" fill="#ff796c"/><text x="1080" y="420" fill="#ff796c" text-anchor="start" font-family="Inter,Segoe UI,sans-serif" font-size="14" font-weight="500">45.4</text><text x="92" y="507" fill="#eef8f5" text-anchor="start" font-family="Inter,Segoe UI,sans-serif" font-size="17" font-weight="650">Commander</text><rect x="315" y="490" width="205" height="22" rx="11" fill="#24414d"/><rect x="315" y="490" width="181.79229166666667" height="22" rx="11" fill="#76dbc1"/><text x="530" y="508" fill="#76dbc1" text-anchor="start" font-family="Inter,Segoe UI,sans-serif" font-size="14" font-weight="500">6.38</text><rect x="590" y="490" width="205" height="22" rx="11" fill="#24414d"/><rect x="590" y="490" width="148.19798500000002" height="22" rx="11" fill="#ffd166"/><text x="805" y="508" fill="#ffd166" text-anchor="start" font-family="Inter,Segoe UI,sans-serif" font-size="14" font-weight="500">72.3</text><rect x="865" y="490" width="205" height="22" rx="11" fill="#24414d"/><rect x="865" y="490" width="127.69798499999999" height="22" rx="11" fill="#ff796c"/><text x="1080" y="508" fill="#ff796c" text-anchor="start" font-family="Inter,Segoe UI,sans-serif" font-size="14" font-weight="500">62.3</text><text x="92" y="595" fill="#eef8f5" text-anchor="start" font-family="Inter,Segoe UI,sans-serif" font-size="17" font-weight="650">Mech</text><rect x="315" y="578" width="205" height="22" rx="11" fill="#24414d"/><rect x="315" y="578" width="171.79569444444445" height="22" rx="11" fill="#76dbc1"/><text x="530" y="596" fill="#76dbc1" text-anchor="start" font-family="Inter,Segoe UI,sans-serif" font-size="14" font-weight="500">6.03</text><rect x="590" y="578" width="205" height="22" rx="11" fill="#24414d"/><rect x="590" y="578" width="158.875" height="22" rx="11" fill="#ffd166"/><text x="805" y="596" fill="#ffd166" text-anchor="start" font-family="Inter,Segoe UI,sans-serif" font-size="14" font-weight="500">77.5</text><rect x="865" y="578" width="205" height="22" rx="11" fill="#24414d"/><rect x="865" y="578" width="148.34025499999998" height="22" rx="11" fill="#ff796c"/><text x="1080" y="596" fill="#ff796c" text-anchor="start" font-family="Inter,Segoe UI,sans-serif" font-size="14" font-weight="500">72.4</text>
  <text x="62" y="732" fill="#8fb4c4" font-family="ui-monospace,Consolas,monospace" font-size="13">Context Landscape · context-landscape-lookdev-20260813-v1 · 2026-08-12</text>
</svg>