<svg xmlns="http://www.w3.org/2000/svg" width="1800" height="560" viewBox="0 0 1800 560"><rect width="1800" height="560" fill="#07131f"/><style>.s{font-family:Segoe UI,Arial,sans-serif}.m{font-family:Consolas,monospace}.t{fill:#ecf7ff}.u{fill:#9fb3c5}</style><text x="70" y="72" class="s t" font-size="34" font-weight="700">Artillery decision and resolution funnel</text><text x="70" y="108" class="s u" font-size="18">All player decisions across the 1.4112M-run mechanism screen.</text><text x="70" y="195" class="m t" font-size="15">phases considered</text><rect x="600" y="170" width="1010" height="30" rx="6" fill="#102536"/><rect x="600" y="170" width="1010" height="30" rx="6" fill="#72b7ff"/><text x="1630" y="193" class="m u" font-size="15">10,505,494</text><text x="70" y="257" class="m t" font-size="15">shells declared</text><rect x="600" y="232" width="1010" height="30" rx="6" fill="#102536"/><rect x="600" y="232" width="118.39691022621116" height="30" rx="6" fill="#f8d66d"/><text x="1630" y="255" class="m u" font-size="15">1,231,503</text><text x="70" y="319" class="m t" font-size="15">shells fired</text><rect x="600" y="294" width="1010" height="30" rx="6" fill="#102536"/><rect x="600" y="294" width="118.39691022621116" height="30" rx="6" fill="#4ff0c5"/><text x="1630" y="317" class="m u" font-size="15">1,231,503</text><text x="70" y="381" class="m t" font-size="15">flare established</text><rect x="600" y="356" width="1010" height="30" rx="6" fill="#102536"/><rect x="600" y="356" width="88.42136600144649" height="30" rx="6" fill="#ff7188"/><text x="1630" y="379" class="m u" font-size="15">919,713</text><text x="70" y="443" class="m t" font-size="15">hostile shells blocked</text><rect x="600" y="418" width="1010" height="30" rx="6" fill="#102536"/><rect x="600" y="418" width="6.094613922962594" height="30" rx="6" fill="#4ff0c5"/><text x="1630" y="441" class="m u" font-size="15">63,393</text></svg>