<svg xmlns="http://www.w3.org/2000/svg" width="1800" height="1320" viewBox="0 0 1800 1320" role="img" aria-labelledby="title desc"><title id="title">Model frontier: diversity versus dominance</title><desc id="desc">Upper-left is preferred: more viable commanders, less one-way dominance at the support-aware 95th percentile. Gold rows advance provisionally.</desc><defs><linearGradient id="bg" x1="0" y1="0" x2="1" y2="1"><stop stop-color="#061119"/><stop offset=".55" stop-color="#0b1723"/><stop offset="1" stop-color="#071b1b"/></linearGradient><pattern id="grid" width="48" height="48" patternUnits="userSpaceOnUse"><path d="M48 0H0V48" fill="none" stroke="#31506a" opacity=".12"/></pattern><style>.s{font-family:Inter,"Segoe UI",Arial,sans-serif}.m{font-family:"Cascadia Mono",Consolas,monospace}.t{fill:#f4f8fc;font-weight:750}.muted{fill:#91a7bb}.teal{fill:#4ff0c5}.amber{fill:#f8d66d}.coral{fill:#ff7188}.purple{fill:#b58cff}</style></defs><rect width="1800" height="1320" fill="url(#bg)"/><rect width="1800" height="1320" fill="url(#grid)"/><text x="80" y="80" class="s teal" font-size="17" font-weight="700" letter-spacing="3">CONTEXT LANDSCAPE / EVIDENCE LAB</text><text x="80" y="145" class="s t" font-size="52">Model frontier: diversity versus dominance</text><text x="80" y="188" class="s muted" font-size="21">Upper-left is preferred: more viable commanders, less one-way dominance at the support-aware 95th percentile. Gold rows advance provisionally.</text><rect x="120" y="250" width="1100" height="950" rx="14" fill="#0c1824" stroke="#294157"/><line x1="170" y1="1150" x2="1170" y2="1150" stroke="#91a7bb"/><line x1="170" y1="330" x2="170" y2="1150" stroke="#91a7bb"/><text x="510" y="1220" class="s muted" font-size="18">95th-percentile commander dominance →</text><text x="80" y="760" transform="rotate(-90 80 760)" class="s muted" font-size="18">effective commander diversity →</text><circle cx="312.85714285714295" cy="707.7048665071854" r="8" fill="#67a9ff" opacity=".92"/><text x="324.85714285714295" y="697.7048665071854" class="m muted" font-size="12">0</text><circle cx="312.85714285714295" cy="715.0788384640905" r="13" fill="#f8d66d" opacity=".92"/><text x="324.85714285714295" y="705.0788384640905" class="m t" font-size="12">1</text><circle cx="1027.142857142857" cy="787.1576245438196" r="8" fill="#4ff0c5" opacity=".92"/><text x="1039.142857142857" y="777.1576245438196" class="m muted" font-size="12">2</text><circle cx="1027.142857142857" cy="841.4100123976323" r="8" fill="#67a9ff" opacity=".92"/><text x="1039.142857142857" y="831.4100123976323" class="m muted" font-size="12">3</text><circle cx="1027.142857142857" cy="596.9234664478165" r="8" fill="#67a9ff" opacity=".92"/><text x="1039.142857142857" y="586.9234664478165" class="m muted" font-size="12">4</text><circle cx="1027.142857142857" cy="812.6729993539262" r="8" fill="#4ff0c5" opacity=".92"/><text x="1039.142857142857" y="802.6729993539262" class="m muted" font-size="12">5</text><circle cx="1027.142857142857" cy="587.4733276292585" r="8" fill="#67a9ff" opacity=".92"/><text x="1039.142857142857" y="577.4733276292585" class="m muted" font-size="12">6</text><circle cx="1027.142857142857" cy="690.3652936143465" r="8" fill="#4ff0c5" opacity=".92"/><text x="1039.142857142857" y="680.3652936143465" class="m muted" font-size="12">7</text><circle cx="312.85714285714295" cy="881.1149138277253" r="13" fill="#f8d66d" opacity=".92"/><text x="324.85714285714295" y="871.1149138277253" class="m t" font-size="12">8</text><circle cx="1027.142857142857" cy="689.2198222423999" r="8" fill="#67a9ff" opacity=".92"/><text x="1039.142857142857" y="679.2198222423999" class="m muted" font-size="12">9</text><circle cx="1027.142857142857" cy="674.1855104856031" r="8" fill="#4ff0c5" opacity=".92"/><text x="1039.142857142857" y="664.1855104856031" class="m muted" font-size="12">10</text><circle cx="312.85714285714295" cy="525.0594562503275" r="8" fill="#4ff0c5" opacity=".92"/><text x="324.85714285714295" y="515.0594562503275" class="m muted" font-size="12">11</text><circle cx="1027.142857142857" cy="797.4525484991881" r="8" fill="#4ff0c5" opacity=".92"/><text x="1039.142857142857" y="787.4525484991881" class="m muted" font-size="12">12</text><circle cx="1027.142857142857" cy="975.7022123662016" r="8" fill="#67a9ff" opacity=".92"/><text x="1039.142857142857" y="965.7022123662016" class="m muted" font-size="12">13</text><circle cx="312.85714285714295" cy="597.2384710751018" r="8" fill="#67a9ff" opacity=".92"/><text x="324.85714285714295" y="587.2384710751018" class="m muted" font-size="12">14</text><circle cx="1027.142857142857" cy="724.2712462239606" r="13" fill="#f8d66d" opacity=".92"/><text x="1039.142857142857" y="714.2712462239606" class="m t" font-size="12">15</text><circle cx="1027.142857142857" cy="1039.003824058391" r="8" fill="#67a9ff" opacity=".92"/><text x="1039.142857142857" y="1029.003824058391" class="m muted" font-size="12">16</text><circle cx="1027.142857142857" cy="924.6714627459883" r="8" fill="#67a9ff" opacity=".92"/><text x="1039.142857142857" y="914.6714627459883" class="m muted" font-size="12">17</text><circle cx="312.85714285714295" cy="979.2531736192356" r="8" fill="#67a9ff" opacity=".92"/><text x="324.85714285714295" y="969.2531736192356" class="m muted" font-size="12">18</text><circle cx="1027.142857142857" cy="697.9969966299394" r="8" fill="#4ff0c5" opacity=".92"/><text x="1039.142857142857" y="687.9969966299394" class="m muted" font-size="12">19</text><circle cx="1027.142857142857" cy="776.819745412003" r="8" fill="#67a9ff" opacity=".92"/><text x="1039.142857142857" y="766.819745412003" class="m muted" font-size="12">20</text><circle cx="1027.142857142857" cy="905.4991356580349" r="8" fill="#4ff0c5" opacity=".92"/><text x="1039.142857142857" y="895.4991356580349" class="m muted" font-size="12">21</text><circle cx="312.85714285714295" cy="499.9593148125514" r="13" fill="#f8d66d" opacity=".92"/><text x="324.85714285714295" y="489.9593148125514" class="m t" font-size="12">22</text><circle cx="1027.142857142857" cy="683.5497389512652" r="8" fill="#67a9ff" opacity=".92"/><text x="1039.142857142857" y="673.5497389512652" class="m muted" font-size="12">23</text><circle cx="1027.142857142857" cy="929.9119942726431" r="8" fill="#67a9ff" opacity=".92"/><text x="1039.142857142857" y="919.9119942726431" class="m muted" font-size="12">24</text><circle cx="312.85714285714295" cy="902.119995110793" r="13" fill="#f8d66d" opacity=".92"/><text x="324.85714285714295" y="892.119995110793" class="m t" font-size="12">25</text><circle cx="312.85714285714295" cy="1109.9228203740242" r="8" fill="#4ff0c5" opacity=".92"/><text x="324.85714285714295" y="1099.9228203740242" class="m muted" font-size="12">26</text><circle cx="312.85714285714295" cy="1029.8830082592676" r="8" fill="#4ff0c5" opacity=".92"/><text x="324.85714285714295" y="1019.8830082592676" class="m muted" font-size="12">27</text><circle cx="312.85714285714295" cy="682.9770032652918" r="8" fill="#67a9ff" opacity=".92"/><text x="324.85714285714295" y="672.9770032652918" class="m muted" font-size="12">28</text><circle cx="1027.142857142857" cy="808.8213518657564" r="13" fill="#f8d66d" opacity=".92"/><text x="1039.142857142857" y="798.8213518657564" class="m t" font-size="12">29</text><circle cx="1027.142857142857" cy="330" r="8" fill="#4ff0c5" opacity=".92"/><text x="1039.142857142857" y="320" class="m muted" font-size="12">30</text><circle cx="1027.142857142857" cy="563.4327472105329" r="8" fill="#4ff0c5" opacity=".92"/><text x="1039.142857142857" y="553.4327472105329" class="m muted" font-size="12">31</text><circle cx="1027.142857142857" cy="713.4894969355148" r="8" fill="#4ff0c5" opacity=".92"/><text x="1039.142857142857" y="703.4894969355148" class="m muted" font-size="12">32</text><circle cx="312.85714285714295" cy="552.3789484712497" r="8" fill="#4ff0c5" opacity=".92"/><text x="324.85714285714295" y="542.3789484712497" class="m muted" font-size="12">33</text><circle cx="312.85714285714295" cy="1085.0231364263389" r="8" fill="#4ff0c5" opacity=".92"/><text x="324.85714285714295" y="1075.0231364263389" class="m muted" font-size="12">34</text><circle cx="348.57142857142856" cy="820.333339153818" r="8" fill="#67a9ff" opacity=".92"/><text x="360.57142857142856" y="810.333339153818" class="m muted" font-size="12">35</text><circle cx="1027.142857142857" cy="912.4721926347588" r="8" fill="#67a9ff" opacity=".92"/><text x="1039.142857142857" y="902.4721926347588" class="m muted" font-size="12">36</text><circle cx="1027.142857142857" cy="921.6932371789276" r="8" fill="#b58cff" opacity=".92"/><text x="1039.142857142857" y="911.6932371789276" class="m muted" font-size="12">37</text><circle cx="312.85714285714295" cy="777.4640730587229" r="8" fill="#4ff0c5" opacity=".92"/><text x="324.85714285714295" y="767.4640730587229" class="m muted" font-size="12">38</text><circle cx="1027.142857142857" cy="607.8913548342035" r="8" fill="#b58cff" opacity=".92"/><text x="1039.142857142857" y="597.8913548342035" class="m muted" font-size="12">39</text><rect x="1250" y="250" width="470" height="315" rx="12" fill="#101e2b" stroke="#f8d66d"/><text x="1280" y="280" class="s amber" font-size="16" font-weight="700">PROVISIONAL NEXT-STAGE SET</text><text x="1280" y="300" class="m t" font-size="15">1. row 22 / diversity-cycle-anchor</text><text x="1280" y="342" class="m t" font-size="15">2. row 8 / counterplay-frontier</text><text x="1280" y="384" class="m t" font-size="15">3. row 25 / counterplay-frontier</text><text x="1280" y="426" class="m t" font-size="15">4. row 1 / round-limit-contrast</text><text x="1280" y="468" class="m t" font-size="15">5. row 29 / lower-seat-effect-contrast</text><text x="1280" y="510" class="m t" font-size="15">6. row 15 / counterplay-collapse-boundary</text><text x="80" y="1282" class="m muted" font-size="13">ATTENTION V2 / CORRECTED CAUSAL SHAPE SCREEN</text><text x="1720" y="1282" text-anchor="end" class="m muted" font-size="13">sha256:9e92787ff92b804fb7</text></svg>